frame=   65 fps= 63 q=31.0 size=     803kB time=00:00:02.16 bitrate=3031.6kbits/s speed=2.11x    
frame=   96 fps= 63 q=31.0 size=    1057kB time=00:00:03.18 bitrate=2716.9kbits/s speed=2.09x    
frame=  127 fps= 62 q=31.0 size=    1357kB time=00:00:04.23 bitrate=2626.4kbits/s speed=2.07x    
frame=  161 fps= 63 q=31.0 size=    1624kB time=00:00:05.35 bitrate=2483.4kbits/s speed= 2.1x    
frame=  182 fps= 59 q=31.0 size=    1818kB time=00:00:06.06 bitrate=2457.3kbits/s speed=1.98x    
frame=  207 fps= 58 q=31.0 size=    2057kB time=00:00:06.89 bitrate=2442.9kbits/s speed=1.93x    
frame=  231 fps= 56 q=31.0 size=    2283kB time=00:00:07.70 bitrate=2427.1kbits/s speed=1.88x    
frame=  251 fps= 54 q=31.0 size=    2460kB time=00:00:08.36 bitrate=2410.9kbits/s speed=1.81x    
frame=  283 fps= 55 q=31.0 size=    2766kB time=00:00:09.43 bitrate=2402.5kbits/s speed=1.84x    
frame=  315 fps= 56 q=31.0 size=    3045kB time=00:00:10.50 bitrate=2374.9kbits/s speed=1.87x    
frame=  347 fps= 57 q=31.0 size=    3360kB time=00:00:11.57 bitrate=2378.2kbits/s speed=1.89x    
frame=  379 fps= 57 q=31.0 size=    3712kB time=00:00:12.61 bitrate=2410.3kbits/s speed= 1.9x    
frame=  406 fps= 57 q=31.0 size=    3947kB time=00:00:13.53 bitrate=2389.5kbits/s speed=1.89x    
frame=  433 fps= 57 q=31.0 size=    4234kB time=00:00:14.44 bitrate=2400.6kbits/s speed=1.89x    
frame=  461 fps= 56 q=31.0 size=    4433kB time=00:00:15.36 bitrate=2363.9kbits/s speed=1.88x    
frame=  494 fps= 57 q=31.0 size=    4729kB time=00:00:16.48 bitrate=2350.3kbits/s speed= 1.9x    
frame=  528 fps= 57 q=31.0 size=    5033kB time=00:00:17.63 bitrate=2338.1kbits/s speed=1.92x    
frame=  561 fps= 58 q=31.0 size=    5323kB time=00:00:18.70 bitrate=2331.2kbits/s speed=1.93x    
frame=  594 fps= 58 q=24.8 size=    5624kB time=00:00:19.80 bitrate=2326.7kbits/s speed=1.94x    
frame=  627 fps= 59 q=31.0 size=    5871kB time=00:00:20.92 bitrate=2298.4kbits/s speed=1.95x    
frame=  659 fps= 59 q=31.0 size=    6152kB time=00:00:21.99 bitrate=2291.2kbits/s speed=1.96x    
frame=  692 fps= 59 q=31.0 size=    6456kB time=00:00:23.06 bitrate=2292.7kbits/s speed=1.97x    
frame=  724 fps= 59 q=31.0 size=    6701kB time=00:00:24.16 bitrate=2271.9kbits/s speed=1.98x    
frame=  754 fps= 59 q=31.0 size=    7003kB time=00:00:25.15 bitrate=2280.4kbits/s speed=1.98x    
frame=  789 fps= 60 q=31.0 size=    7308kB time=00:00:26.33 bitrate=2273.7kbits/s speed=1.99x    
frame=  821 fps= 60 q=31.0 size=    7533kB time=00:00:27.40 bitrate=2251.9kbits/s speed=1.99x    
frame=  855 fps= 60 q=31.0 size=    7818kB time=00:00:28.50 bitrate=2247.2kbits/s speed=   2x    
frame=  889 fps= 60 q=31.0 size=    8073kB time=00:00:29.65 bitrate=2230.4kbits/s speed=2.01x    
frame=  921 fps= 60 q=31.0 size=    8313kB time=00:00:30.74 bitrate=2214.8kbits/s speed=2.01x    
frame=  953 fps= 60 q=31.0 size=    8511kB time=00:00:31.79 bitrate=2193.2kbits/s speed=2.01x    
frame=  987 fps= 61 q=31.0 size=    8779kB time=00:00:32.91 bitrate=2185.0kbits/s speed=2.02x    
frame= 1023 fps= 61 q=31.0 size=    9078kB time=00:00:34.14 bitrate=2178.2kbits/s speed=2.03x    
frame= 1057 fps= 61 q=31.0 size=    9352kB time=00:00:35.24 bitrate=2174.0kbits/s speed=2.04x    
frame= 1085 fps= 61 q=31.0 size=    9565kB time=00:00:36.20 bitrate=2164.1kbits/s speed=2.03x    
frame= 1109 fps= 61 q=31.0 size=    9747kB time=00:00:36.99 bitrate=2158.6kbits/s speed=2.02x    
frame= 1139 fps= 61 q=31.0 size=   10006kB time=00:00:37.98 bitrate=2158.0kbits/s speed=2.02x    
frame= 1168 fps= 60 q=31.0 size=   10242kB time=00:00:38.95 bitrate=2154.1kbits/s speed=2.02x    
frame= 1199 fps= 60 q=31.0 size=   10576kB time=00:00:39.99 bitrate=2166.2kbits/s speed=2.02x    
frame= 1231 fps= 61 q=31.0 size=   10890kB time=00:00:41.06 bitrate=2172.4kbits/s speed=2.02x    
frame= 1263 fps= 61 q=31.0 size=   11142kB time=00:00:42.13 bitrate=2166.1kbits/s speed=2.02x    
frame= 1296 fps= 61 q=31.0 size=   11465kB time=00:00:43.23 bitrate=2172.5kbits/s speed=2.03x    
frame= 1330 fps= 61 q=31.0 size=   11810kB time=00:00:44.35 bitrate=2181.1kbits/s speed=2.03x    
frame= 1363 fps= 61 q=31.0 size=   12108kB time=00:00:45.45 bitrate=2182.2kbits/s speed=2.03x    
frame= 1398 fps= 61 q=24.8 size=   12491kB time=00:00:46.65 bitrate=2193.2kbits/s speed=2.04x    
frame= 1431 fps= 61 q=31.0 size=   12727kB time=00:00:47.72 bitrate=2184.6kbits/s speed=2.04x    
frame= 1463 fps= 61 q=31.0 size=   13068kB time=00:00:48.79 bitrate=2193.8kbits/s speed=2.04x    
frame= 1498 fps= 61 q=31.0 size=   13387kB time=00:00:49.97 bitrate=2194.6kbits/s speed=2.05x    
frame= 1528 fps= 61 q=31.0 size=   13632kB time=00:00:50.99 bitrate=2190.0kbits/s speed=2.05x    
frame= 1557 fps= 61 q=31.0 size=   13909kB time=00:00:51.93 bitrate=2194.1kbits/s speed=2.04x    
frame= 1590 fps= 61 q=24.8 size=   14207kB time=00:00:53.05 bitrate=2193.6kbits/s speed=2.05x    
frame= 1626 fps= 62 q=24.8 size=   14502kB time=00:00:54.23 bitrate=2190.7kbits/s speed=2.05x    
frame= 1654 fps= 61 q=31.0 size=   14741kB time=00:00:55.19 bitrate=2187.7kbits/s speed=2.05x    
frame= 1684 fps= 61 q=31.0 size=   15012kB time=00:00:56.19 bitrate=2188.6kbits/s speed=2.05x    
frame= 1715 fps= 61 q=31.0 size=   15350kB time=00:00:57.20 bitrate=2198.0kbits/s speed=2.05x    
frame= 1738 fps= 61 q=31.0 size=   15570kB time=00:00:57.96 bitrate=2200.3kbits/s speed=2.04x    
frame= 1770 fps= 61 q=24.8 size=   15912kB time=00:00:59.03 bitrate=2207.9kbits/s speed=2.04x    
frame= 1806 fps= 61 q=24.8 size=   16210kB time=00:01:00.26 bitrate=2203.5kbits/s speed=2.04x    
frame= 1842 fps= 61 q=24.8 size=   16499kB time=00:01:01.46 bitrate=2198.9kbits/s speed=2.05x    
frame= 1865 fps= 61 q=31.0 Lsize=   16675kB time=00:01:02.30 bitrate=2192.6kbits/s speed=2.05x    

